<svg xmlns="http://www.w3.org/2000/svg" xmlns:xlink="http://www.w3.org/1999/xlink" width="150" zoomAndPan="magnify" viewBox="0 0 112.5 112.499997" height="150" preserveAspectRatio="xMidYMid meet" version="1.0"><defs><g/><clipPath id="76ddad78f4"><path d="M 26.59375 35 L 57 35 L 57 61.652344 L 26.59375 61.652344 Z M 26.59375 35 " clip-rule="nonzero"/></clipPath><clipPath id="41b6bd3464"><path d="M 56 21.902344 L 85.84375 21.902344 L 85.84375 48 L 56 48 Z M 56 21.902344 " clip-rule="nonzero"/></clipPath></defs><g clip-path="url(#76ddad78f4)"><path fill="#0652e9" d="M 46.546875 54.039062 L 46.546875 57.636719 L 30.210938 50.066406 L 30.210938 47.148438 L 46.546875 39.578125 L 46.546875 43.175781 L 34.195312 48.574219 L 34.195312 48.640625 Z M 56.246094 35.578125 L 28.933594 35.578125 C 27.640625 35.578125 26.597656 36.621094 26.597656 37.910156 L 26.597656 59.308594 C 26.597656 60.59375 27.640625 61.636719 28.933594 61.636719 L 48.664062 61.636719 L 56.246094 35.578125 " fill-opacity="1" fill-rule="nonzero"/></g><g clip-path="url(#41b6bd3464)"><path fill="#62e1e9" d="M 82.234375 36.503906 L 65.902344 43.972656 L 65.902344 40.375 L 78.523438 34.976562 L 78.523438 34.910156 L 65.902344 29.511719 L 65.902344 25.910156 L 82.234375 33.378906 Z M 63.828125 21.914062 L 56.246094 47.972656 L 83.515625 47.972656 C 84.804688 47.972656 85.847656 46.929688 85.847656 45.640625 L 85.847656 24.242188 C 85.847656 22.957031 84.804688 21.914062 83.515625 21.914062 L 63.828125 21.914062 " fill-opacity="1" fill-rule="nonzero"/></g><g fill="#ffffff" fill-opacity="1"><g transform="translate(3.106092, 75.751598)"><g><path d="M 5.523438 -7.890625 L 3.644531 -2.25 L 1.761719 -7.890625 L -0.171875 -7.890625 L 2.667969 0 L 4.617188 0 L 7.457031 -7.890625 Z M 5.523438 -7.890625 "/></g></g></g><g fill="#ffffff" fill-opacity="1"><g transform="translate(10.855194, 75.751598)"><g><path d="M 0.839844 0 L 2.578125 0 L 2.578125 -7.890625 L 0.839844 -7.890625 Z M 0.839844 0 "/></g></g></g><g fill="#ffffff" fill-opacity="1"><g transform="translate(14.72448, 75.751598)"><g><path d="M 5.640625 -7.890625 L -0.0664062 -7.890625 L -0.0664062 -6.351562 L 1.933594 -6.351562 L 1.933594 0 L 3.65625 0 L 3.65625 -6.351562 L 5.640625 -6.351562 Z M 5.640625 -7.890625 "/></g></g></g><g fill="#ffffff" fill-opacity="1"><g transform="translate(20.763835, 75.751598)"><g><path d="M 4.539062 0.105469 C 6.785156 0.105469 8.589844 -1.710938 8.589844 -3.945312 C 8.589844 -6.179688 6.785156 -7.996094 4.539062 -7.996094 C 2.300781 -7.996094 0.488281 -6.179688 0.488281 -3.945312 C 0.488281 -1.710938 2.300781 0.105469 4.539062 0.105469 Z M 4.539062 -1.589844 C 3.210938 -1.589844 2.195312 -2.617188 2.195312 -3.945312 C 2.195312 -5.273438 3.210938 -6.300781 4.539062 -6.300781 C 5.878906 -6.300781 6.890625 -5.273438 6.890625 -3.945312 C 6.890625 -2.617188 5.878906 -1.589844 4.539062 -1.589844 Z M 4.539062 -1.589844 "/></g></g></g><g fill="#ffffff" fill-opacity="1"><g transform="translate(30.314742, 75.751598)"><g><path d="M 4.890625 -3.25 C 5.828125 -3.523438 6.484375 -4.394531 6.484375 -5.472656 C 6.484375 -6.8125 5.484375 -7.890625 4.128906 -7.890625 L 0.777344 -7.890625 L 0.777344 0 L 2.511719 0 L 2.511719 -3.050781 L 3.210938 -3.050781 L 5.15625 0 L 7.101562 0 Z M 3.867188 -4.484375 L 2.511719 -4.484375 L 2.511719 -6.351562 L 3.867188 -6.351562 C 4.417969 -6.351562 4.828125 -5.957031 4.828125 -5.417969 C 4.828125 -4.867188 4.417969 -4.484375 3.867188 -4.484375 Z M 3.867188 -4.484375 "/></g></g></g><g fill="#ffffff" fill-opacity="1"><g transform="translate(37.813956, 75.751598)"><g/></g></g><g fill="#ffffff" fill-opacity="1"><g transform="translate(41.433354, 75.751598)"><g><path d="M 5.589844 -6.367188 L 5.589844 -7.890625 L 0.839844 -7.890625 L 0.839844 0 L 2.578125 0 L 2.578125 -3.183594 L 5.15625 -3.183594 L 5.15625 -4.707031 L 2.578125 -4.707031 L 2.578125 -6.367188 Z M 5.589844 -6.367188 "/></g></g></g><g fill="#ffffff" fill-opacity="1"><g transform="translate(47.617373, 75.751598)"><g><path d="M 5.589844 -6.367188 L 5.589844 -7.890625 L 0.839844 -7.890625 L 0.839844 0 L 5.589844 0 L 5.589844 -1.527344 L 2.578125 -1.527344 L 2.578125 -3.183594 L 5.15625 -3.183594 L 5.15625 -4.707031 L 2.578125 -4.707031 L 2.578125 -6.367188 Z M 5.589844 -6.367188 "/></g></g></g><g fill="#ffffff" fill-opacity="1"><g transform="translate(54.209108, 75.751598)"><g><path d="M 4.890625 -3.25 C 5.828125 -3.523438 6.484375 -4.394531 6.484375 -5.472656 C 6.484375 -6.8125 5.484375 -7.890625 4.128906 -7.890625 L 0.777344 -7.890625 L 0.777344 0 L 2.511719 0 L 2.511719 -3.050781 L 3.210938 -3.050781 L 5.15625 0 L 7.101562 0 Z M 3.867188 -4.484375 L 2.511719 -4.484375 L 2.511719 -6.351562 L 3.867188 -6.351562 C 4.417969 -6.351562 4.828125 -5.957031 4.828125 -5.417969 C 4.828125 -4.867188 4.417969 -4.484375 3.867188 -4.484375 Z M 3.867188 -4.484375 "/></g></g></g><g fill="#ffffff" fill-opacity="1"><g transform="translate(61.708322, 75.751598)"><g><path d="M 6.445312 -7.890625 L 6.445312 -2.667969 L 2.566406 -7.890625 L 0.777344 -7.890625 L 0.777344 0 L 2.511719 0 L 2.511719 -5.234375 L 6.378906 0 L 8.167969 0 L 8.167969 -7.890625 Z M 6.445312 -7.890625 "/></g></g></g><g fill="#ffffff" fill-opacity="1"><g transform="translate(71.127716, 75.751598)"><g><path d="M 5.601562 0 L 7.457031 0 L 4.617188 -7.890625 L 2.667969 -7.890625 L -0.171875 0 L 1.683594 0 L 2.171875 -1.484375 L 5.117188 -1.484375 Z M 2.628906 -2.933594 L 3.644531 -6.0625 L 4.65625 -2.933594 Z M 2.628906 -2.933594 "/></g></g></g><g fill="#ffffff" fill-opacity="1"><g transform="translate(78.876818, 75.751598)"><g><path d="M 6.445312 -7.890625 L 6.445312 -2.667969 L 2.566406 -7.890625 L 0.777344 -7.890625 L 0.777344 0 L 2.511719 0 L 2.511719 -5.234375 L 6.378906 0 L 8.167969 0 L 8.167969 -7.890625 Z M 6.445312 -7.890625 "/></g></g></g><g fill="#ffffff" fill-opacity="1"><g transform="translate(88.296212, 75.751598)"><g><path d="M 0.777344 0 L 3.378906 0 C 5.550781 0 7.324219 -1.761719 7.324219 -3.945312 C 7.324219 -6.128906 5.550781 -7.890625 3.378906 -7.890625 L 0.777344 -7.890625 Z M 2.511719 -1.539062 L 2.511719 -6.351562 L 3.367188 -6.351562 C 4.617188 -6.351562 5.589844 -5.3125 5.589844 -3.945312 C 5.589844 -2.578125 4.617188 -1.539062 3.367188 -1.539062 Z M 2.511719 -1.539062 "/></g></g></g><g fill="#ffffff" fill-opacity="1"><g transform="translate(96.571392, 75.751598)"><g><path d="M 5.589844 -6.367188 L 5.589844 -7.890625 L 0.839844 -7.890625 L 0.839844 0 L 5.589844 0 L 5.589844 -1.527344 L 2.578125 -1.527344 L 2.578125 -3.183594 L 5.15625 -3.183594 L 5.15625 -4.707031 L 2.578125 -4.707031 L 2.578125 -6.367188 Z M 5.589844 -6.367188 "/></g></g></g><g fill="#ffffff" fill-opacity="1"><g transform="translate(103.163127, 75.751598)"><g><path d="M 3.210938 0.105469 C 4.683594 0.105469 5.929688 -0.761719 5.929688 -2.234375 C 5.929688 -5.15625 2.300781 -4.433594 2.300781 -5.800781 C 2.300781 -6.246094 2.644531 -6.457031 3.0625 -6.457031 C 3.511719 -6.457031 3.957031 -6.207031 4.351562 -5.773438 L 5.511719 -6.878906 C 4.933594 -7.550781 4.050781 -7.996094 3.078125 -7.996094 C 1.828125 -7.996094 0.550781 -7.246094 0.550781 -5.667969 C 0.550781 -2.984375 4.195312 -3.628906 4.195312 -2.25 C 4.195312 -1.816406 3.828125 -1.527344 3.222656 -1.527344 C 2.5 -1.527344 1.933594 -1.933594 1.644531 -2.550781 L 0.210938 -1.65625 C 0.722656 -0.671875 1.828125 0.105469 3.210938 0.105469 Z M 3.210938 0.105469 "/></g></g></g><g fill="#ffffff" fill-opacity="1"><g transform="translate(24.27994, 89.161714)"><g><path d="M 4.886719 -3.914062 L 3.882812 -0.699219 L 2.929688 -3.914062 L 2.34375 -3.914062 L 1.402344 -0.703125 L 0.40625 -3.914062 L -0.0390625 -3.914062 L 1.1875 0 L 1.628906 0 L 2.636719 -3.46875 L 3.660156 0 L 4.097656 0 L 5.316406 -3.914062 Z M 4.886719 -3.914062 "/></g></g></g><g fill="#ffffff" fill-opacity="1"><g transform="translate(31.305553, 89.161714)"><g><path d="M 2.648438 -3.507812 L 2.648438 -3.914062 L 0.507812 -3.914062 L 0.507812 0 L 2.648438 0 L 2.648438 -0.40625 L 0.925781 -0.40625 L 0.925781 -1.753906 L 2.425781 -1.753906 L 2.425781 -2.160156 L 0.925781 -2.160156 L 0.925781 -3.507812 Z M 2.648438 -3.507812 "/></g></g></g><g fill="#ffffff" fill-opacity="1"><g transform="translate(36.09368, 89.161714)"><g><path d="M 2.40625 -1.984375 C 2.753906 -2.140625 2.980469 -2.453125 2.980469 -2.871094 C 2.980469 -3.484375 2.5 -3.914062 1.898438 -3.914062 L 0.476562 -3.914062 L 0.476562 0 L 2.035156 0 C 2.628906 0 3.105469 -0.425781 3.105469 -1.03125 C 3.105469 -1.507812 2.816406 -1.847656 2.40625 -1.984375 Z M 2.5625 -2.835938 C 2.5625 -2.453125 2.242188 -2.160156 1.851562 -2.160156 L 0.886719 -2.160156 L 0.886719 -3.496094 L 1.851562 -3.496094 C 2.242188 -3.496094 2.5625 -3.222656 2.5625 -2.835938 Z M 1.984375 -0.417969 L 0.886719 -0.417969 L 0.886719 -1.753906 L 1.984375 -1.753906 C 2.367188 -1.753906 2.6875 -1.460938 2.6875 -1.078125 C 2.6875 -0.691406 2.367188 -0.417969 1.984375 -0.417969 Z M 1.984375 -0.417969 "/></g></g></g><g fill="#ffffff" fill-opacity="1"><g transform="translate(41.253636, 89.161714)"><g/></g></g><g fill="#ffffff" fill-opacity="1"><g transform="translate(44.574022, 89.161714)"><g><path d="M 0.476562 0 L 1.546875 0 C 2.621094 0 3.503906 -0.875 3.503906 -1.957031 C 3.503906 -3.039062 2.621094 -3.914062 1.546875 -3.914062 L 0.476562 -3.914062 Z M 0.886719 -0.417969 L 0.886719 -3.496094 L 1.539062 -3.496094 C 2.40625 -3.496094 3.085938 -2.835938 3.085938 -1.957031 C 3.085938 -1.078125 2.40625 -0.417969 1.539062 -0.417969 Z M 0.886719 -0.417969 "/></g></g></g><g fill="#ffffff" fill-opacity="1"><g transform="translate(50.144943, 89.161714)"><g><path d="M 2.648438 -3.507812 L 2.648438 -3.914062 L 0.507812 -3.914062 L 0.507812 0 L 2.648438 0 L 2.648438 -0.40625 L 0.925781 -0.40625 L 0.925781 -1.753906 L 2.425781 -1.753906 L 2.425781 -2.160156 L 0.925781 -2.160156 L 0.925781 -3.507812 Z M 2.648438 -3.507812 "/></g></g></g><g fill="#ffffff" fill-opacity="1"><g transform="translate(54.933071, 89.161714)"><g><path d="M 2.835938 -3.914062 L 1.652344 -0.535156 L 0.464844 -3.914062 L 0 -3.914062 L 1.414062 0 L 1.878906 0 L 3.292969 -3.914062 Z M 2.835938 -3.914062 "/></g></g></g><g fill="#ffffff" fill-opacity="1"><g transform="translate(59.975607, 89.161714)"><g><path d="M 2.648438 -3.507812 L 2.648438 -3.914062 L 0.507812 -3.914062 L 0.507812 0 L 2.648438 0 L 2.648438 -0.40625 L 0.925781 -0.40625 L 0.925781 -1.753906 L 2.425781 -1.753906 L 2.425781 -2.160156 L 0.925781 -2.160156 L 0.925781 -3.507812 Z M 2.648438 -3.507812 "/></g></g></g><g fill="#ffffff" fill-opacity="1"><g transform="translate(64.763734, 89.161714)"><g><path d="M 0.894531 -0.417969 L 0.894531 -3.914062 L 0.476562 -3.914062 L 0.476562 0 L 2.347656 0 L 2.347656 -0.417969 Z M 0.894531 -0.417969 "/></g></g></g><g fill="#ffffff" fill-opacity="1"><g transform="translate(68.919104, 89.161714)"><g><path d="M 2.328125 0.0507812 C 3.445312 0.0507812 4.339844 -0.847656 4.339844 -1.957031 C 4.339844 -3.066406 3.445312 -3.964844 2.328125 -3.964844 C 1.21875 -3.964844 0.320312 -3.066406 0.320312 -1.957031 C 0.320312 -0.847656 1.21875 0.0507812 2.328125 0.0507812 Z M 2.328125 -0.367188 C 1.449219 -0.367188 0.738281 -1.070312 0.738281 -1.957031 C 0.738281 -2.84375 1.449219 -3.546875 2.328125 -3.546875 C 3.214844 -3.546875 3.921875 -2.84375 3.921875 -1.957031 C 3.921875 -1.070312 3.214844 -0.367188 2.328125 -0.367188 Z M 2.328125 -0.367188 "/></g></g></g><g fill="#ffffff" fill-opacity="1"><g transform="translate(75.331533, 89.161714)"><g><path d="M 1.878906 -3.914062 L 0.476562 -3.914062 L 0.476562 0 L 0.894531 0 L 0.894531 -1.742188 L 1.878906 -1.742188 C 2.484375 -1.742188 2.96875 -2.21875 2.96875 -2.824219 C 2.96875 -3.425781 2.484375 -3.914062 1.878906 -3.914062 Z M 1.839844 -2.140625 L 0.894531 -2.140625 L 0.894531 -3.507812 L 1.839844 -3.507812 C 2.230469 -3.507812 2.550781 -3.234375 2.550781 -2.816406 C 2.550781 -2.386719 2.230469 -2.140625 1.839844 -2.140625 Z M 1.839844 -2.140625 "/></g></g></g><g fill="#ffffff" fill-opacity="1"><g transform="translate(80.158796, 89.161714)"><g><path d="M 2.648438 -3.507812 L 2.648438 -3.914062 L 0.507812 -3.914062 L 0.507812 0 L 2.648438 0 L 2.648438 -0.40625 L 0.925781 -0.40625 L 0.925781 -1.753906 L 2.425781 -1.753906 L 2.425781 -2.160156 L 0.925781 -2.160156 L 0.925781 -3.507812 Z M 2.648438 -3.507812 "/></g></g></g><g fill="#ffffff" fill-opacity="1"><g transform="translate(84.946921, 89.161714)"><g><path d="M 2.0625 -1.789062 C 2.578125 -1.859375 2.96875 -2.289062 2.96875 -2.816406 C 2.96875 -3.429688 2.480469 -3.914062 1.878906 -3.914062 L 0.476562 -3.914062 L 0.476562 0 L 0.894531 0 L 0.894531 -1.769531 L 1.628906 -1.769531 L 2.738281 0 L 3.214844 0 Z M 0.894531 -2.164062 L 0.894531 -3.496094 L 1.851562 -3.496094 C 2.242188 -3.496094 2.550781 -3.222656 2.550781 -2.832031 C 2.550781 -2.433594 2.25 -2.164062 1.851562 -2.164062 Z M 0.894531 -2.164062 "/></g></g></g></svg>