<svg xmlns="http://www.w3.org/2000/svg" xmlns:xlink="http://www.w3.org/1999/xlink" width="150" zoomAndPan="magnify" viewBox="0 0 112.5 112.499997" height="150" preserveAspectRatio="xMidYMid meet" version="1.0"><defs><clipPath id="daff46d805"><path d="M 2.558594 2.558594 L 109.808594 2.558594 L 109.808594 109.808594 L 2.558594 109.808594 Z M 2.558594 2.558594 " clip-rule="nonzero"/></clipPath></defs><path fill="#ffffff" d="M 56.183594 44.296875 C 49.636719 44.296875 44.296875 49.636719 44.296875 56.183594 C 44.296875 62.730469 49.636719 68.070312 56.183594 68.070312 C 62.730469 68.070312 68.070312 62.730469 68.070312 56.183594 C 68.070312 49.636719 62.730469 44.296875 56.183594 44.296875 Z M 56.183594 44.296875 " fill-opacity="1" fill-rule="nonzero"/><path fill="#ffffff" d="M 72.15625 27.027344 L 40.210938 27.027344 C 32.96875 27.027344 27.027344 32.921875 27.027344 40.210938 L 27.027344 72.15625 C 27.027344 79.398438 32.921875 85.339844 40.210938 85.339844 L 72.15625 85.339844 C 79.398438 85.339844 85.339844 79.445312 85.339844 72.15625 L 85.339844 40.210938 C 85.292969 32.921875 79.398438 27.027344 72.15625 27.027344 Z M 56.183594 74.058594 C 46.292969 74.058594 38.261719 66.027344 38.261719 56.136719 C 38.261719 46.246094 46.292969 38.214844 56.183594 38.214844 C 66.074219 38.214844 74.105469 46.246094 74.105469 56.136719 C 74.058594 66.027344 66.027344 74.058594 56.183594 74.058594 Z M 75.359375 41.234375 C 72.992188 41.234375 71.039062 39.285156 71.039062 36.914062 C 71.039062 34.546875 72.992188 32.597656 75.359375 32.597656 C 77.726562 32.597656 79.675781 34.546875 79.675781 36.914062 C 79.675781 39.328125 77.773438 41.234375 75.359375 41.234375 Z M 75.359375 41.234375 " fill-opacity="1" fill-rule="nonzero"/><g clip-path="url(#daff46d805)"><path fill="#ffffff" d="M 56.183594 2.558594 C 26.5625 2.558594 2.558594 26.5625 2.558594 56.183594 C 2.558594 85.804688 26.5625 109.808594 56.183594 109.808594 C 85.804688 109.808594 109.808594 85.804688 109.808594 56.183594 C 109.761719 26.5625 85.757812 2.558594 56.183594 2.558594 Z M 91.328125 72.15625 C 91.328125 82.742188 82.695312 91.375 72.109375 91.375 L 40.210938 91.375 C 29.625 91.375 20.992188 82.742188 20.992188 72.15625 L 20.992188 40.210938 C 20.992188 29.625 29.625 20.992188 40.210938 20.992188 L 72.15625 20.992188 C 82.742188 20.992188 91.375 29.625 91.375 40.210938 L 91.375 72.15625 Z M 91.328125 72.15625 " fill-opacity="1" fill-rule="nonzero"/></g></svg>