<svg xmlns="http://www.w3.org/2000/svg" xmlns:xlink="http://www.w3.org/1999/xlink" width="150" zoomAndPan="magnify" viewBox="0 0 112.5 112.499997" height="150" preserveAspectRatio="xMidYMid meet" version="1.0"><defs><clipPath id="fea7882dc8"><path d="M 15.976562 11.25 L 96.226562 11.25 L 96.226562 101.25 L 15.976562 101.25 Z M 15.976562 11.25 " clip-rule="nonzero"/></clipPath></defs><g clip-path="url(#fea7882dc8)"><path fill="#0277bd" d="M 96.214844 11.25 L 15.984375 11.25 L 23.0625 91.777344 L 56.101562 101.25 L 89.136719 91.777344 Z M 96.214844 11.25 " fill-opacity="1" fill-rule="nonzero"/></g><path fill="#039be5" d="M 56.101562 18.355469 L 56.101562 93.90625 L 82.53125 86.328125 L 88.429688 18.355469 Z M 56.101562 18.355469 " fill-opacity="1" fill-rule="nonzero"/><path fill="#ffffff" d="M 77.574219 30.199219 L 56.101562 30.199219 L 56.101562 39.671875 L 67.664062 39.671875 L 66.957031 49.144531 L 56.101562 49.144531 L 56.101562 58.617188 L 66.484375 58.617188 L 65.773438 69.277344 L 56.101562 72.59375 L 56.101562 82.539062 L 74.742188 76.382812 L 76.394531 49.144531 Z M 77.574219 30.199219 " fill-opacity="1" fill-rule="nonzero"/><path fill="#eeeeee" d="M 56.101562 30.199219 L 56.101562 39.671875 L 35.097656 39.671875 L 34.390625 30.199219 Z M 45.246094 49.144531 L 45.71875 58.617188 L 56.101562 58.617188 L 56.101562 49.144531 Z M 46.1875 63.355469 L 36.75 63.355469 L 37.457031 76.382812 L 56.101562 82.539062 L 56.101562 72.59375 L 46.425781 69.277344 Z M 46.1875 63.355469 " fill-opacity="1" fill-rule="nonzero"/></svg>