<svg xmlns="http://www.w3.org/2000/svg" xmlns:xlink="http://www.w3.org/1999/xlink" width="150" zoomAndPan="magnify" viewBox="0 0 112.5 112.499997" height="150" preserveAspectRatio="xMidYMid meet" version="1.0"><defs><clipPath id="a934578b3c"><path d="M 16.8125 11.25 L 95.5625 11.25 L 95.5625 101 L 16.8125 101 Z M 16.8125 11.25 " clip-rule="nonzero"/></clipPath></defs><g clip-path="url(#a934578b3c)"><path fill="#e44d26" d="M 23.960938 92.054688 L 16.792969 11.503906 L 95.585938 11.503906 L 88.410156 92.042969 L 56.136719 100.996094 Z M 23.960938 92.054688 " fill-opacity="1" fill-rule="nonzero"/></g><path fill="#f16529" d="M 82.261719 86.914062 L 88.398438 18.089844 L 56.1875 18.089844 L 56.1875 94.152344 Z M 82.261719 86.914062 " fill-opacity="1" fill-rule="nonzero"/><path fill="#ebebeb" d="M 56.15625 27.96875 L 31.453125 27.96875 L 34.113281 57.84375 L 56.1875 57.84375 L 56.1875 47.964844 L 43.136719 47.964844 L 42.234375 37.851562 L 56.1875 37.851562 L 56.1875 27.96875 Z M 56.1875 73.589844 L 56.148438 73.601562 L 45.160156 70.628906 L 44.460938 62.753906 L 34.554688 62.753906 L 35.9375 78.261719 L 56.144531 83.855469 L 56.1875 83.84375 Z M 56.1875 73.589844 " fill-opacity="1" fill-rule="nonzero"/><path fill="#ffffff" d="M 56.15625 57.84375 L 68.300781 57.84375 L 67.1875 70.652344 L 56.183594 73.625 L 56.183594 83.902344 L 76.40625 78.289062 L 79.117188 47.960938 L 56.1875 47.960938 Z M 80.628906 30.621094 L 80.863281 27.96875 L 56.148438 27.96875 L 56.148438 37.847656 L 79.976562 37.847656 L 80.171875 35.628906 Z M 80.628906 30.621094 " fill-opacity="1" fill-rule="nonzero"/></svg>