<svg xmlns="http://www.w3.org/2000/svg" xmlns:xlink="http://www.w3.org/1999/xlink" width="500" zoomAndPan="magnify" viewBox="0 0 375 74.999997" height="100" preserveAspectRatio="xMidYMid meet" version="1.0"><defs><g/><clipPath id="e77e46ce81"><path d="M 69.46875 29 L 106 29 L 106 61.691406 L 69.46875 61.691406 Z M 69.46875 29 " clip-rule="nonzero"/></clipPath><clipPath id="a984fb9ece"><path d="M 105 12.941406 L 142.21875 12.941406 L 142.21875 45 L 105 45 Z M 105 12.941406 " clip-rule="nonzero"/></clipPath></defs><g clip-path="url(#e77e46ce81)"><path fill="#0652e9" d="M 93.964844 52.351562 L 93.964844 56.765625 L 73.910156 47.480469 L 73.910156 43.902344 L 93.964844 34.617188 L 93.964844 39.03125 L 78.796875 45.648438 L 78.796875 45.730469 Z M 105.875 29.714844 L 72.335938 29.714844 C 70.753906 29.714844 69.472656 30.992188 69.472656 32.570312 L 69.472656 58.8125 C 69.472656 60.386719 70.753906 61.667969 72.335938 61.667969 L 96.5625 61.667969 L 105.875 29.714844 " fill-opacity="1" fill-rule="nonzero"/></g><g clip-path="url(#a984fb9ece)"><path fill="#62e1e9" d="M 137.78125 30.847656 L 117.730469 40.007812 L 117.730469 35.59375 L 133.230469 28.976562 L 133.230469 28.890625 L 117.730469 22.273438 L 117.730469 17.859375 L 137.78125 27.019531 Z M 115.183594 12.957031 L 105.875 44.910156 L 139.355469 44.910156 C 140.9375 44.910156 142.222656 43.632812 142.222656 42.054688 L 142.222656 15.8125 C 142.222656 14.234375 140.9375 12.957031 139.355469 12.957031 L 115.183594 12.957031 " fill-opacity="1" fill-rule="nonzero"/></g><g fill="#ffffff" fill-opacity="1"><g transform="translate(170.346402, 33.783237)"><g><path d="M 6.566406 -9.382812 L 4.332031 -2.671875 L 2.09375 -9.382812 L -0.203125 -9.382812 L 3.175781 0 L 5.488281 0 L 8.867188 -9.382812 Z M 6.566406 -9.382812 "/></g></g></g><g fill="#ffffff" fill-opacity="1"><g transform="translate(179.5589, 33.783237)"><g><path d="M 1 0 L 3.066406 0 L 3.066406 -9.382812 L 1 -9.382812 Z M 1 0 "/></g></g></g><g fill="#ffffff" fill-opacity="1"><g transform="translate(184.15889, 33.783237)"><g><path d="M 6.707031 -9.382812 L -0.078125 -9.382812 L -0.078125 -7.550781 L 2.296875 -7.550781 L 2.296875 0 L 4.347656 0 L 4.347656 -7.550781 L 6.707031 -7.550781 Z M 6.707031 -9.382812 "/></g></g></g><g fill="#ffffff" fill-opacity="1"><g transform="translate(191.33876, 33.783237)"><g><path d="M 5.394531 0.125 C 8.066406 0.125 10.210938 -2.03125 10.210938 -4.691406 C 10.210938 -7.347656 8.066406 -9.507812 5.394531 -9.507812 C 2.734375 -9.507812 0.578125 -7.347656 0.578125 -4.691406 C 0.578125 -2.03125 2.734375 0.125 5.394531 0.125 Z M 5.394531 -1.890625 C 3.816406 -1.890625 2.609375 -3.113281 2.609375 -4.691406 C 2.609375 -6.269531 3.816406 -7.488281 5.394531 -7.488281 C 6.988281 -7.488281 8.191406 -6.269531 8.191406 -4.691406 C 8.191406 -3.113281 6.988281 -1.890625 5.394531 -1.890625 Z M 5.394531 -1.890625 "/></g></g></g><g fill="#ffffff" fill-opacity="1"><g transform="translate(202.69333, 33.783237)"><g><path d="M 5.816406 -3.863281 C 6.925781 -4.191406 7.707031 -5.222656 7.707031 -6.503906 C 7.707031 -8.097656 6.519531 -9.382812 4.910156 -9.382812 L 0.921875 -9.382812 L 0.921875 0 L 2.988281 0 L 2.988281 -3.628906 L 3.816406 -3.628906 L 6.128906 0 L 8.441406 0 Z M 4.597656 -5.332031 L 2.988281 -5.332031 L 2.988281 -7.550781 L 4.597656 -7.550781 C 5.253906 -7.550781 5.738281 -7.082031 5.738281 -6.441406 C 5.738281 -5.785156 5.253906 -5.332031 4.597656 -5.332031 Z M 4.597656 -5.332031 "/></g></g></g><g fill="#ffffff" fill-opacity="1"><g transform="translate(211.60875, 33.783237)"><g/></g></g><g fill="#ffffff" fill-opacity="1"><g transform="translate(215.911662, 33.783237)"><g><path d="M 6.644531 -7.566406 L 6.644531 -9.382812 L 1 -9.382812 L 1 0 L 3.066406 0 L 3.066406 -3.785156 L 6.128906 -3.785156 L 6.128906 -5.597656 L 3.066406 -5.597656 L 3.066406 -7.566406 Z M 6.644531 -7.566406 "/></g></g></g><g fill="#ffffff" fill-opacity="1"><g transform="translate(223.263515, 33.783237)"><g><path d="M 6.644531 -7.566406 L 6.644531 -9.382812 L 1 -9.382812 L 1 0 L 6.644531 0 L 6.644531 -1.8125 L 3.066406 -1.8125 L 3.066406 -3.785156 L 6.128906 -3.785156 L 6.128906 -5.597656 L 3.066406 -5.597656 L 3.066406 -7.566406 Z M 6.644531 -7.566406 "/></g></g></g><g fill="#ffffff" fill-opacity="1"><g transform="translate(231.100082, 33.783237)"><g><path d="M 5.816406 -3.863281 C 6.925781 -4.191406 7.707031 -5.222656 7.707031 -6.503906 C 7.707031 -8.097656 6.519531 -9.382812 4.910156 -9.382812 L 0.921875 -9.382812 L 0.921875 0 L 2.988281 0 L 2.988281 -3.628906 L 3.816406 -3.628906 L 6.128906 0 L 8.441406 0 Z M 4.597656 -5.332031 L 2.988281 -5.332031 L 2.988281 -7.550781 L 4.597656 -7.550781 C 5.253906 -7.550781 5.738281 -7.082031 5.738281 -6.441406 C 5.738281 -5.785156 5.253906 -5.332031 4.597656 -5.332031 Z M 4.597656 -5.332031 "/></g></g></g><g fill="#ffffff" fill-opacity="1"><g transform="translate(240.015501, 33.783237)"><g><path d="M 7.660156 -9.382812 L 7.660156 -3.175781 L 3.050781 -9.382812 L 0.921875 -9.382812 L 0.921875 0 L 2.988281 0 L 2.988281 -6.222656 L 7.582031 0 L 9.710938 0 L 9.710938 -9.382812 Z M 7.660156 -9.382812 "/></g></g></g><g fill="#ffffff" fill-opacity="1"><g transform="translate(251.213723, 33.783237)"><g><path d="M 6.660156 0 L 8.867188 0 L 5.488281 -9.382812 L 3.175781 -9.382812 L -0.203125 0 L 2 0 L 2.578125 -1.765625 L 6.082031 -1.765625 Z M 3.128906 -3.488281 L 4.332031 -7.207031 L 5.535156 -3.488281 Z M 3.128906 -3.488281 "/></g></g></g><g fill="#ffffff" fill-opacity="1"><g transform="translate(260.426221, 33.783237)"><g><path d="M 7.660156 -9.382812 L 7.660156 -3.175781 L 3.050781 -9.382812 L 0.921875 -9.382812 L 0.921875 0 L 2.988281 0 L 2.988281 -6.222656 L 7.582031 0 L 9.710938 0 L 9.710938 -9.382812 Z M 7.660156 -9.382812 "/></g></g></g><g fill="#ffffff" fill-opacity="1"><g transform="translate(271.624442, 33.783237)"><g><path d="M 0.921875 0 L 4.019531 0 C 6.597656 0 8.707031 -2.09375 8.707031 -4.691406 C 8.707031 -7.285156 6.597656 -9.382812 4.019531 -9.382812 L 0.921875 -9.382812 Z M 2.988281 -1.828125 L 2.988281 -7.550781 L 4.003906 -7.550781 C 5.488281 -7.550781 6.644531 -6.316406 6.644531 -4.691406 C 6.644531 -3.066406 5.488281 -1.828125 4.003906 -1.828125 Z M 2.988281 -1.828125 "/></g></g></g><g fill="#ffffff" fill-opacity="1"><g transform="translate(281.462366, 33.783237)"><g><path d="M 6.644531 -7.566406 L 6.644531 -9.382812 L 1 -9.382812 L 1 0 L 6.644531 0 L 6.644531 -1.8125 L 3.066406 -1.8125 L 3.066406 -3.785156 L 6.128906 -3.785156 L 6.128906 -5.597656 L 3.066406 -5.597656 L 3.066406 -7.566406 Z M 6.644531 -7.566406 "/></g></g></g><g fill="#ffffff" fill-opacity="1"><g transform="translate(289.298932, 33.783237)"><g><path d="M 3.816406 0.125 C 5.566406 0.125 7.050781 -0.90625 7.050781 -2.65625 C 7.050781 -6.128906 2.734375 -5.269531 2.734375 -6.894531 C 2.734375 -7.425781 3.144531 -7.675781 3.644531 -7.675781 C 4.175781 -7.675781 4.707031 -7.378906 5.175781 -6.863281 L 6.550781 -8.175781 C 5.863281 -8.976562 4.816406 -9.507812 3.660156 -9.507812 C 2.171875 -9.507812 0.65625 -8.613281 0.65625 -6.738281 C 0.65625 -3.550781 4.988281 -4.316406 4.988281 -2.671875 C 4.988281 -2.15625 4.550781 -1.8125 3.832031 -1.8125 C 2.972656 -1.8125 2.296875 -2.296875 1.953125 -3.035156 L 0.25 -1.96875 C 0.859375 -0.796875 2.171875 0.125 3.816406 0.125 Z M 3.816406 0.125 "/></g></g></g><g fill="#ffffff" fill-opacity="1"><g transform="translate(195.518885, 49.725818)"><g><path d="M 5.808594 -4.652344 L 4.613281 -0.828125 L 3.480469 -4.652344 L 2.785156 -4.652344 L 1.667969 -0.835938 L 0.480469 -4.652344 L -0.046875 -4.652344 L 1.410156 0 L 1.9375 0 L 3.132812 -4.125 L 4.351562 0 L 4.871094 0 L 6.320312 -4.652344 Z M 5.808594 -4.652344 "/></g></g></g><g fill="#ffffff" fill-opacity="1"><g transform="translate(203.871265, 49.725818)"><g><path d="M 3.148438 -4.171875 L 3.148438 -4.652344 L 0.605469 -4.652344 L 0.605469 0 L 3.148438 0 L 3.148438 -0.480469 L 1.101562 -0.480469 L 1.101562 -2.085938 L 2.886719 -2.085938 L 2.886719 -2.566406 L 1.101562 -2.566406 L 1.101562 -4.171875 Z M 3.148438 -4.171875 "/></g></g></g><g fill="#ffffff" fill-opacity="1"><g transform="translate(209.563617, 49.725818)"><g><path d="M 2.863281 -2.359375 C 3.273438 -2.542969 3.542969 -2.914062 3.542969 -3.414062 C 3.542969 -4.140625 2.96875 -4.652344 2.257812 -4.652344 L 0.566406 -4.652344 L 0.566406 0 L 2.417969 0 C 3.125 0 3.691406 -0.503906 3.691406 -1.226562 C 3.691406 -1.792969 3.351562 -2.195312 2.863281 -2.359375 Z M 3.046875 -3.375 C 3.046875 -2.914062 2.667969 -2.566406 2.203125 -2.566406 L 1.054688 -2.566406 L 1.054688 -4.15625 L 2.203125 -4.15625 C 2.667969 -4.15625 3.046875 -3.832031 3.046875 -3.375 Z M 2.359375 -0.496094 L 1.054688 -0.496094 L 1.054688 -2.085938 L 2.359375 -2.085938 C 2.816406 -2.085938 3.195312 -1.738281 3.195312 -1.28125 C 3.195312 -0.820312 2.816406 -0.496094 2.359375 -0.496094 Z M 2.359375 -0.496094 "/></g></g></g><g fill="#ffffff" fill-opacity="1"><g transform="translate(215.698015, 49.725818)"><g/></g></g><g fill="#ffffff" fill-opacity="1"><g transform="translate(219.645448, 49.725818)"><g><path d="M 0.566406 0 L 1.839844 0 C 3.117188 0 4.164062 -1.039062 4.164062 -2.328125 C 4.164062 -3.613281 3.117188 -4.652344 1.839844 -4.652344 L 0.566406 -4.652344 Z M 1.054688 -0.496094 L 1.054688 -4.15625 L 1.832031 -4.15625 C 2.863281 -4.15625 3.667969 -3.375 3.667969 -2.328125 C 3.667969 -1.28125 2.863281 -0.496094 1.832031 -0.496094 Z M 1.054688 -0.496094 "/></g></g></g><g fill="#ffffff" fill-opacity="1"><g transform="translate(226.268422, 49.725818)"><g><path d="M 3.148438 -4.171875 L 3.148438 -4.652344 L 0.605469 -4.652344 L 0.605469 0 L 3.148438 0 L 3.148438 -0.480469 L 1.101562 -0.480469 L 1.101562 -2.085938 L 2.886719 -2.085938 L 2.886719 -2.566406 L 1.101562 -2.566406 L 1.101562 -4.171875 Z M 3.148438 -4.171875 "/></g></g></g><g fill="#ffffff" fill-opacity="1"><g transform="translate(231.960774, 49.725818)"><g><path d="M 3.375 -4.652344 L 1.960938 -0.636719 L 0.550781 -4.652344 L 0 -4.652344 L 1.683594 0 L 2.234375 0 L 3.917969 -4.652344 Z M 3.375 -4.652344 "/></g></g></g><g fill="#ffffff" fill-opacity="1"><g transform="translate(237.955578, 49.725818)"><g><path d="M 3.148438 -4.171875 L 3.148438 -4.652344 L 0.605469 -4.652344 L 0.605469 0 L 3.148438 0 L 3.148438 -0.480469 L 1.101562 -0.480469 L 1.101562 -2.085938 L 2.886719 -2.085938 L 2.886719 -2.566406 L 1.101562 -2.566406 L 1.101562 -4.171875 Z M 3.148438 -4.171875 "/></g></g></g><g fill="#ffffff" fill-opacity="1"><g transform="translate(243.647931, 49.725818)"><g><path d="M 1.0625 -0.496094 L 1.0625 -4.652344 L 0.566406 -4.652344 L 0.566406 0 L 2.792969 0 L 2.792969 -0.496094 Z M 1.0625 -0.496094 "/></g></g></g><g fill="#ffffff" fill-opacity="1"><g transform="translate(248.588031, 49.725818)"><g><path d="M 2.769531 0.0625 C 4.09375 0.0625 5.15625 -1.007812 5.15625 -2.328125 C 5.15625 -3.644531 4.09375 -4.714844 2.769531 -4.714844 C 1.449219 -4.714844 0.378906 -3.644531 0.378906 -2.328125 C 0.378906 -1.007812 1.449219 0.0625 2.769531 0.0625 Z M 2.769531 -0.433594 C 1.722656 -0.433594 0.875 -1.273438 0.875 -2.328125 C 0.875 -3.382812 1.722656 -4.21875 2.769531 -4.21875 C 3.824219 -4.21875 4.660156 -3.382812 4.660156 -2.328125 C 4.660156 -1.273438 3.824219 -0.433594 2.769531 -0.433594 Z M 2.769531 -0.433594 "/></g></g></g><g fill="#ffffff" fill-opacity="1"><g transform="translate(256.211429, 49.725818)"><g><path d="M 2.234375 -4.652344 L 0.566406 -4.652344 L 0.566406 0 L 1.0625 0 L 1.0625 -2.070312 L 2.234375 -2.070312 C 2.953125 -2.070312 3.527344 -2.636719 3.527344 -3.359375 C 3.527344 -4.070312 2.953125 -4.652344 2.234375 -4.652344 Z M 2.1875 -2.542969 L 1.0625 -2.542969 L 1.0625 -4.171875 L 2.1875 -4.171875 C 2.652344 -4.171875 3.03125 -3.847656 3.03125 -3.351562 C 3.03125 -2.839844 2.652344 -2.542969 2.1875 -2.542969 Z M 2.1875 -2.542969 "/></g></g></g><g fill="#ffffff" fill-opacity="1"><g transform="translate(261.950307, 49.725818)"><g><path d="M 3.148438 -4.171875 L 3.148438 -4.652344 L 0.605469 -4.652344 L 0.605469 0 L 3.148438 0 L 3.148438 -0.480469 L 1.101562 -0.480469 L 1.101562 -2.085938 L 2.886719 -2.085938 L 2.886719 -2.566406 L 1.101562 -2.566406 L 1.101562 -4.171875 Z M 3.148438 -4.171875 "/></g></g></g><g fill="#ffffff" fill-opacity="1"><g transform="translate(267.642657, 49.725818)"><g><path d="M 2.449219 -2.125 C 3.0625 -2.210938 3.527344 -2.722656 3.527344 -3.351562 C 3.527344 -4.078125 2.945312 -4.652344 2.234375 -4.652344 L 0.566406 -4.652344 L 0.566406 0 L 1.0625 0 L 1.0625 -2.101562 L 1.9375 -2.101562 L 3.257812 0 L 3.824219 0 Z M 1.0625 -2.574219 L 1.0625 -4.15625 L 2.203125 -4.15625 C 2.667969 -4.15625 3.03125 -3.832031 3.03125 -3.367188 C 3.03125 -2.894531 2.675781 -2.574219 2.203125 -2.574219 Z M 1.0625 -2.574219 "/></g></g></g></svg>