<svg xmlns="http://www.w3.org/2000/svg" xmlns:xlink="http://www.w3.org/1999/xlink" width="150" zoomAndPan="magnify" viewBox="0 0 112.5 112.499997" height="150" preserveAspectRatio="xMidYMid meet" version="1.0"><defs><clipPath id="6545cff947"><path d="M 2.558594 2.558594 L 109.808594 2.558594 L 109.808594 109.808594 L 2.558594 109.808594 Z M 2.558594 2.558594 " clip-rule="nonzero"/></clipPath></defs><path fill="#ffffff" d="M 57.296875 27.164062 C 41.652344 27.164062 28.929688 39.886719 28.929688 55.535156 C 28.929688 61.011719 30.507812 66.304688 33.433594 70.902344 L 34.128906 71.96875 L 31.390625 81.8125 L 41.789062 79.351562 L 42.765625 79.953125 C 47.128906 82.554688 52.191406 83.949219 57.296875 83.949219 C 72.945312 83.949219 85.664062 71.226562 85.664062 55.578125 C 85.664062 39.933594 72.945312 27.164062 57.296875 27.164062 Z M 73.453125 67.742188 C 73.175781 69.136719 70.203125 70.902344 68.300781 71.410156 C 63.566406 72.664062 56.878906 69.042969 50.285156 63.285156 C 43.648438 57.53125 39.191406 51.402344 39.746094 46.527344 C 39.980469 44.578125 41.371094 41.371094 42.671875 40.953125 C 43.972656 40.535156 44.902344 40.953125 46.246094 41.371094 C 46.898438 42.117188 47.734375 42.996094 48.660156 44.066406 C 49.914062 45.457031 50.75 46.710938 51.261719 47.59375 C 51.679688 48.335938 51.539062 49.265625 50.890625 49.824219 L 48.617188 51.867188 C 48.199219 52.238281 48.058594 52.839844 48.289062 53.351562 C 48.988281 54.835938 50.613281 57.902344 53.074219 60.035156 C 55.488281 62.171875 58.785156 63.378906 60.363281 63.84375 C 60.871094 64.03125 61.476562 63.796875 61.753906 63.332031 L 63.472656 60.828125 C 63.9375 60.128906 64.867188 59.851562 65.65625 60.175781 C 66.582031 60.59375 67.976562 61.242188 69.507812 62.265625 C 70.667969 63.054688 71.691406 63.75 72.480469 64.308594 C 73.175781 65.5625 73.734375 66.445312 73.453125 67.742188 Z M 73.453125 67.742188 " fill-opacity="1" fill-rule="nonzero"/><g clip-path="url(#6545cff947)"><path fill="#ffffff" d="M 56.183594 2.558594 C 26.5625 2.558594 2.558594 26.5625 2.558594 56.183594 C 2.558594 85.804688 26.5625 109.808594 56.183594 109.808594 C 85.804688 109.808594 109.808594 85.804688 109.808594 56.183594 C 109.761719 26.5625 85.757812 2.558594 56.183594 2.558594 Z M 57.296875 89.472656 C 51.539062 89.472656 45.921875 88.035156 40.910156 85.246094 L 23.496094 89.378906 L 28.09375 72.804688 C 24.984375 67.558594 23.359375 61.617188 23.359375 55.488281 C 23.359375 36.777344 38.585938 21.546875 57.296875 21.546875 C 76.007812 21.546875 91.238281 36.824219 91.238281 55.535156 C 91.238281 74.242188 76.007812 89.472656 57.296875 89.472656 Z M 57.296875 89.472656 " fill-opacity="1" fill-rule="nonzero"/></g></svg>